<mxfile host="65bd71144e">
    <diagram id="h7SpRwS4_h1bRK7UTGT9" name="Page-1">
        <mxGraphModel dx="3280" dy="1895" grid="1" gridSize="10" guides="1" tooltips="1" connect="1" arrows="1" fold="1" page="1" pageScale="1" pageWidth="2336" pageHeight="1654" math="0" shadow="0">
            <root>
                <mxCell id="0"/>
                <mxCell id="1" parent="0"/>
                <mxCell id="2" value="order" style="swimlane;childLayout=stackLayout;resizeParent=1;resizeParentMax=0;horizontal=0;startSize=20;horizontalStack=0;fillColor=#60a917;strokeColor=#2D7600;fontColor=#ffffff;fontSize=13;" parent="1" vertex="1">
                    <mxGeometry x="83" y="80" width="990" height="1040" as="geometry"/>
                </mxCell>
                <mxCell id="3" value="Customer" style="swimlane;startSize=20;horizontal=0;" parent="2" vertex="1">
                    <mxGeometry x="20" width="970" height="270" as="geometry"/>
                </mxCell>
                <mxCell id="71" value="" style="edgeStyle=none;html=1;" parent="3" source="6" target="70" edge="1">
                    <mxGeometry relative="1" as="geometry"/>
                </mxCell>
                <mxCell id="6" value="&lt;font style=&quot;font-size: 18px&quot;&gt;شروع&lt;/font&gt;" style="ellipse;whiteSpace=wrap;html=1;aspect=fixed;fontSize=13;fillColor=#0050ef;strokeColor=#001DBC;fontColor=#ffffff;" parent="3" vertex="1">
                    <mxGeometry x="47" y="60" width="80" height="80" as="geometry"/>
                </mxCell>
                <mxCell id="70" value="ارسال درخواست و علت به پشتیبانی&amp;nbsp;" style="whiteSpace=wrap;html=1;fontSize=13;fontColor=#ffffff;strokeColor=#2D7600;fillColor=#60a917;" parent="3" vertex="1">
                    <mxGeometry x="187" y="70" width="163" height="60" as="geometry"/>
                </mxCell>
                <mxCell id="4" value="Postex" style="swimlane;startSize=20;horizontal=0;fillColor=#60a917;strokeColor=#2D7600;fontColor=#ffffff;" parent="2" vertex="1">
                    <mxGeometry x="20" y="270" width="970" height="435" as="geometry"/>
                </mxCell>
                <mxCell id="75" value="" style="edgeStyle=none;html=1;" parent="4" source="72" target="74" edge="1">
                    <mxGeometry relative="1" as="geometry"/>
                </mxCell>
                <mxCell id="72" value="ارسال فرم کنسلی برای مالی در CRM" style="whiteSpace=wrap;html=1;fontSize=13;fontColor=#ffffff;strokeColor=#2D7600;fillColor=#60a917;" parent="4" vertex="1">
                    <mxGeometry x="208.5" y="140" width="131.5" height="60" as="geometry"/>
                </mxCell>
                <mxCell id="74" value="کنسل سفارش توسط مالی" style="whiteSpace=wrap;html=1;fontSize=13;fontColor=#ffffff;strokeColor=#2D7600;fillColor=#60a917;" parent="4" vertex="1">
                    <mxGeometry x="425.75" y="140" width="120" height="60" as="geometry"/>
                </mxCell>
                <mxCell id="95" value="فرآیند مالی کنسلی سفارش" style="verticalLabelPosition=middle;verticalAlign=middle;html=1;strokeWidth=2;shape=mxgraph.arrows2.arrow;dy=0.6;dx=40;notch=0;fontSize=12;fontColor=#E5F0C2;horizontal=1;labelPosition=center;align=center;fillColor=#333333;" vertex="1" parent="4">
                    <mxGeometry x="777" y="123.75" width="120" height="92.5" as="geometry"/>
                </mxCell>
                <mxCell id="13" value="Vendor" style="swimlane;startSize=20;horizontal=0;" parent="2" vertex="1">
                    <mxGeometry x="20" y="705" width="970" height="335" as="geometry"/>
                </mxCell>
                <mxCell id="98" value="کنسلی سفارش سمت وندور" style="whiteSpace=wrap;html=1;fontSize=13;fontColor=#ffffff;strokeColor=#2D7600;fillColor=#60a917;" vertex="1" parent="13">
                    <mxGeometry x="557" y="95" width="120" height="60" as="geometry"/>
                </mxCell>
                <mxCell id="73" value="" style="edgeStyle=none;html=1;" parent="2" source="70" target="72" edge="1">
                    <mxGeometry relative="1" as="geometry"/>
                </mxCell>
                <mxCell id="99" style="edgeStyle=orthogonalEdgeStyle;html=1;exitX=0.5;exitY=1;exitDx=0;exitDy=0;entryX=0;entryY=0.5;entryDx=0;entryDy=0;" edge="1" parent="2" source="74" target="98">
                    <mxGeometry relative="1" as="geometry"/>
                </mxCell>
                <mxCell id="100" style="edgeStyle=orthogonalEdgeStyle;html=1;exitX=1;exitY=0.5;exitDx=0;exitDy=0;entryX=0;entryY=0.5;entryDx=0;entryDy=0;entryPerimeter=0;" edge="1" parent="2" source="98" target="95">
                    <mxGeometry relative="1" as="geometry"/>
                </mxCell>
            </root>
        </mxGraphModel>
    </diagram>
</mxfile>